<?xml version="1.0" encoding="utf-8"?>
<!-- Generator: Adobe Illustrator 18.0.0, SVG Export Plug-In . SVG Version: 6.00 Build 0)  -->
<!DOCTYPE svg PUBLIC "-//W3C//DTD SVG 1.1//EN" "http://www.w3.org/Graphics/SVG/1.1/DTD/svg11.dtd">
<svg version="1.1" xmlns="http://www.w3.org/2000/svg" xmlns:xlink="http://www.w3.org/1999/xlink" x="0px" y="0px"
	 viewBox="0 0 595.3 609.5" enable-background="new 0 0 595.3 609.5" xml:space="preserve">
<g id="Livello_2">
	<rect width="595.3" height="609.5"/>
</g>
<g id="Livello_1">
	<rect x="14.6" y="43.6" fill="#ED1C24" width="63.4" height="27.3"/>
	<path fill="#ED1C24" d="M14.6,70.8c0,0,4.5,8.9,9.1,8.9s9.1-8.9,9.1-8.9H14.6z"/>
	<path fill="#ED1C24" d="M37.2,70.8c0,0,4.5,8.9,9.1,8.9s9.1-8.9,9.1-8.9H37.2z"/>
	<path fill="#ED1C24" d="M59.9,70.8c0,0,4.5,8.9,9.1,8.9c4.6,0,9.1-8.9,9.1-8.9H59.9z"/>
	<rect x="87.1" y="43.6" fill="#ED1C24" width="63.4" height="27.3"/>
	<path fill="#ED1C24" d="M123.3,70.8c0,0,3.4,8.9,6.8,8.9s6.8-8.9,6.8-8.9H123.3z"/>
	<path fill="#ED1C24" d="M139.9,70.8c0,0,2.6,8.9,5.3,8.9s5.3-8.9,5.3-8.9H139.9z"/>
	<path fill="#ED1C24" d="M114.4,70.8c0,0-3.4,8.9-6.8,8.9s-6.8-8.9-6.8-8.9H114.4z"/>
	<path fill="#ED1C24" d="M87.1,70.8c0,0,2.7,8.9,5.5,8.9c2.8,0,5.5-8.9,5.5-8.9H87.1z"/>
	<path fill="#ED1C24" d="M149.7,50.4c0.5-2.2,0.8-4.5,0.8-6.8c0-17.5-14.2-31.7-31.7-31.7S87.1,26.1,87.1,43.6
		c0,2.4,0.3,4.6,0.8,6.8H149.7z"/>
	<path fill="#ED1C24" d="M77.2,50.4c0.5-2.2,0.8-4.5,0.8-6.8c0-17.5-14.2-31.7-31.7-31.7S14.6,26.1,14.6,43.6c0,2.4,0.3,4.6,0.8,6.8
		H77.2z"/>
	<ellipse fill="#FFFFFF" cx="32.7" cy="46.4" rx="9.1" ry="12.2"/>
	<ellipse fill="#FFFFFF" cx="59.9" cy="46.4" rx="9.1" ry="12.2"/>
	<ellipse fill="#51559F" cx="32.7" cy="52" rx="6.9" ry="6.5"/>
	<ellipse fill="#51559F" cx="59.9" cy="52" rx="6.9" ry="6.5"/>
	<ellipse fill="#FFFFFF" cx="105.2" cy="46.4" rx="9.1" ry="12.2"/>
	<ellipse fill="#FFFFFF" cx="132.4" cy="46.4" rx="9.1" ry="12.2"/>
	<ellipse fill="#51559F" cx="105.2" cy="52" rx="6.9" ry="6.5"/>
	<ellipse fill="#51559F" cx="132.4" cy="52" rx="6.9" ry="6.5"/>
	<rect x="158.2" y="43.3" fill="#ED1C24" width="63.4" height="27.3"/>
	<path fill="#ED1C24" d="M158.2,70.5c0,0,4.5,8.9,9.1,8.9c4.6,0,9.1-8.9,9.1-8.9H158.2z"/>
	<path fill="#ED1C24" d="M180.8,70.5c0,0,4.5,8.9,9.1,8.9c4.6,0,9.1-8.9,9.1-8.9H180.8z"/>
	<path fill="#ED1C24" d="M203.5,70.5c0,0,4.5,8.9,9.1,8.9c4.6,0,9.1-8.9,9.1-8.9H203.5z"/>
	<rect x="230.7" y="43.3" fill="#ED1C24" width="63.4" height="27.3"/>
	<path fill="#ED1C24" d="M266.9,70.5c0,0,3.4,8.9,6.8,8.9c3.4,0,6.8-8.9,6.8-8.9H266.9z"/>
	<path fill="#ED1C24" d="M283.5,70.5c0,0,2.6,8.9,5.3,8.9s5.3-8.9,5.3-8.9H283.5z"/>
	<path fill="#ED1C24" d="M258,70.5c0,0-3.4,8.9-6.8,8.9s-6.8-8.9-6.8-8.9H258z"/>
	<path fill="#ED1C24" d="M230.7,70.5c0,0,2.7,8.9,5.5,8.9s5.5-8.9,5.5-8.9H230.7z"/>
	<path fill="#ED1C24" d="M293.3,50.1c0.5-2,0.8-4,0.8-6.1c0-15.5-14.2-28.1-31.7-28.1s-31.7,12.6-31.7,28.1c0,2.1,0.3,4.1,0.8,6.1
		H293.3z"/>
	<path fill="#ED1C24" d="M220.8,50.1c0.5-2,0.8-4,0.8-6.1c0-15.5-14.2-28.1-31.7-28.1s-31.7,12.6-31.7,28.1c0,2.1,0.3,4.1,0.8,6.1
		H220.8z"/>
	<ellipse fill="#FFFFFF" cx="176.3" cy="31.6" rx="9.1" ry="9.8"/>
	<ellipse fill="#FFFFFF" cx="203.5" cy="31.6" rx="9.1" ry="9.8"/>
	<ellipse fill="#51559F" cx="176.3" cy="28.2" rx="6.9" ry="6.5"/>
	<ellipse fill="#51559F" cx="203.5" cy="28.2" rx="6.9" ry="6.5"/>
	<ellipse fill="#FFFFFF" cx="248.8" cy="31.6" rx="9.1" ry="9.8"/>
	<ellipse fill="#FFFFFF" cx="276" cy="31.6" rx="9.1" ry="9.8"/>
	<ellipse fill="#51559F" cx="248.8" cy="28.2" rx="6.9" ry="6.5"/>
	<ellipse fill="#51559F" cx="276" cy="28.2" rx="6.9" ry="6.5"/>
	<rect x="303.7" y="44.3" fill="#ED1C24" width="63.4" height="27.3"/>
	<path fill="#ED1C24" d="M303.7,71.5c0,0,4.5,8.9,9.1,8.9s9.1-8.9,9.1-8.9H303.7z"/>
	<path fill="#ED1C24" d="M326.3,71.5c0,0,4.5,8.9,9.1,8.9c4.6,0,9.1-8.9,9.1-8.9H326.3z"/>
	<path fill="#ED1C24" d="M349,71.5c0,0,4.5,8.9,9.1,8.9c4.6,0,9.1-8.9,9.1-8.9H349z"/>
	<path fill="#ED1C24" d="M412.4,71.5c0,0,3.4,8.9,6.8,8.9s6.8-8.9,6.8-8.9H412.4z"/>
	<path fill="#ED1C24" d="M429,71.5c0,0,2.6,8.9,5.3,8.9s5.3-8.9,5.3-8.9H429z"/>
	<path fill="#ED1C24" d="M403.5,71.5c0,0-3.4,8.9-6.8,8.9c-3.4,0-6.8-8.9-6.8-8.9H403.5z"/>
	<path fill="#ED1C24" d="M376.2,71.5c0,0,2.7,8.9,5.5,8.9c2.8,0,5.5-8.9,5.5-8.9H376.2z"/>
	<path fill="#ED1C24" d="M366.3,51.1c0.5-2.2,0.8-4.5,0.8-6.8c0-17.5-14.2-31.7-31.7-31.7s-31.7,14.2-31.7,31.7
		c0,2.4,0.3,4.6,0.8,6.8H366.3z"/>
	<ellipse fill="#FFFFFF" cx="318.1" cy="47.4" rx="8.8" ry="11.8"/>
	
		<ellipse transform="matrix(-0.9999 1.187336e-002 -1.187336e-002 -0.9999 632.1187 96.496)" fill="#51559F" cx="315.8" cy="50.1" rx="6.1" ry="7.2"/>
	<path fill="#ED1C24" d="M447.3,71.2c0,0,4.5,8.9,9.1,8.9s9.1-8.9,9.1-8.9H447.3z"/>
	<path fill="#ED1C24" d="M469.9,71.2c0,0,4.5,8.9,9.1,8.9c4.6,0,9.1-8.9,9.1-8.9H469.9z"/>
	<path fill="#ED1C24" d="M492.6,71.2c0,0,4.5,8.9,9.1,8.9c4.6,0,9.1-8.9,9.1-8.9H492.6z"/>
	<path fill="#ED1C24" d="M556,71.2c0,0,3.4,8.9,6.8,8.9s6.8-8.9,6.8-8.9H556z"/>
	<path fill="#ED1C24" d="M572.6,71.2c0,0,2.6,8.9,5.3,8.9s5.3-8.9,5.3-8.9H572.6z"/>
	<path fill="#ED1C24" d="M547.1,71.2c0,0-3.4,8.9-6.8,8.9s-6.8-8.9-6.8-8.9H547.1z"/>
	<path fill="#ED1C24" d="M519.8,71.2c0,0,2.7,8.9,5.5,8.9s5.5-8.9,5.5-8.9H519.8z"/>
	<ellipse fill="#FFFFFF" cx="345.1" cy="47.4" rx="8.8" ry="11.8"/>
	
		<ellipse transform="matrix(-0.9999 1.187336e-002 -1.187336e-002 -0.9999 686.1168 96.1754)" fill="#51559F" cx="342.8" cy="50.1" rx="6.1" ry="7.2"/>
	<rect x="376.2" y="44.3" fill="#ED1C24" width="63.4" height="27.3"/>
	<path fill="#ED1C24" d="M438.9,51.1c0.5-2.2,0.8-4.5,0.8-6.8c0-17.5-14.2-31.7-31.7-31.7c-17.5,0-31.7,14.2-31.7,31.7
		c0,2.4,0.3,4.6,0.8,6.8H438.9z"/>
	<ellipse fill="#FFFFFF" cx="390.6" cy="47.4" rx="8.8" ry="11.8"/>
	
		<ellipse transform="matrix(-0.9999 1.187336e-002 -1.187336e-002 -0.9999 777.131 95.6351)" fill="#51559F" cx="388.3" cy="50.1" rx="6.1" ry="7.2"/>
	<ellipse fill="#FFFFFF" cx="417.6" cy="47.4" rx="8.8" ry="11.8"/>
	
		<ellipse transform="matrix(-0.9999 1.187336e-002 -1.187336e-002 -0.9999 831.1292 95.3145)" fill="#51559F" cx="415.3" cy="50.1" rx="6.1" ry="7.2"/>
	<rect x="519.8" y="44.3" fill="#ED1C24" width="63.4" height="27.3"/>
	<path fill="#ED1C24" d="M520.6,51.1c-0.5-2.2-0.8-4.5-0.8-6.8c0-17.5,14.2-31.7,31.7-31.7s31.7,14.2,31.7,31.7
		c0,2.4-0.3,4.6-0.8,6.8H520.6z"/>
	<ellipse fill="#FFFFFF" cx="568.9" cy="47.4" rx="8.8" ry="11.8"/>
	
		<ellipse transform="matrix(0.9999 1.187346e-002 -1.187346e-002 0.9999 0.6354 -6.7783)" fill="#51559F" cx="571.2" cy="50.1" rx="6.1" ry="7.2"/>
	<ellipse fill="#FFFFFF" cx="541.9" cy="47.4" rx="8.8" ry="11.8"/>
	
		<ellipse transform="matrix(0.9999 1.187346e-002 -1.187346e-002 0.9999 0.6335 -6.4577)" fill="#51559F" cx="544.2" cy="50.1" rx="6.1" ry="7.2"/>
	<rect x="447.3" y="44.3" fill="#ED1C24" width="63.4" height="27.3"/>
	<path fill="#ED1C24" d="M448.1,51.1c-0.5-2.2-0.8-4.5-0.8-6.8c0-17.5,14.2-31.7,31.7-31.7c17.5,0,31.7,14.2,31.7,31.7
		c0,2.4-0.3,4.6-0.8,6.8H448.1z"/>
	<ellipse fill="#FFFFFF" cx="496.3" cy="47.4" rx="8.8" ry="11.8"/>
	
		<ellipse transform="matrix(0.9999 1.187346e-002 -1.187346e-002 0.9999 0.6303 -5.9173)" fill="#51559F" cx="498.7" cy="50.1" rx="6.1" ry="7.2"/>
	<ellipse fill="#FFFFFF" cx="469.3" cy="47.4" rx="8.8" ry="11.8"/>
	
		<ellipse transform="matrix(0.9999 1.187346e-002 -1.187346e-002 0.9999 0.6284 -5.5968)" fill="#51559F" cx="471.7" cy="50.1" rx="6.1" ry="7.2"/>
	<rect x="13.3" y="119.7" fill="#F49AC0" width="63.4" height="27.3"/>
	<path fill="#F49AC0" d="M13.3,146.9c0,0,4.5,8.9,9.1,8.9s9.1-8.9,9.1-8.9H13.3z"/>
	<path fill="#F49AC0" d="M36,146.9c0,0,4.5,8.9,9.1,8.9s9.1-8.9,9.1-8.9H36z"/>
	<path fill="#F49AC0" d="M58.6,146.9c0,0,4.5,8.9,9.1,8.9c4.6,0,9.1-8.9,9.1-8.9H58.6z"/>
	<rect x="85.8" y="119.7" fill="#F49AC0" width="63.4" height="27.3"/>
	<path fill="#F49AC0" d="M122.1,146.9c0,0,3.4,8.9,6.8,8.9s6.8-8.9,6.8-8.9H122.1z"/>
	<path fill="#F49AC0" d="M138.6,146.9c0,0,2.6,8.9,5.3,8.9s5.3-8.9,5.3-8.9H138.6z"/>
	<path fill="#F49AC0" d="M113.2,146.9c0,0-3.4,8.9-6.8,8.9s-6.8-8.9-6.8-8.9H113.2z"/>
	<path fill="#F49AC0" d="M85.8,146.9c0,0,2.7,8.9,5.5,8.9c2.8,0,5.5-8.9,5.5-8.9H85.8z"/>
	<path fill="#F49AC0" d="M148.5,126.5c0.5-2.2,0.8-4.5,0.8-6.8c0-17.5-14.2-31.7-31.7-31.7s-31.7,14.2-31.7,31.7
		c0,2.4,0.3,4.6,0.8,6.8H148.5z"/>
	<path fill="#F49AC0" d="M76,126.5c0.5-2.2,0.8-4.5,0.8-6.8C76.7,102.2,62.5,88,45,88s-31.7,14.2-31.7,31.7c0,2.4,0.3,4.6,0.8,6.8
		H76z"/>
	<ellipse fill="#FFFFFF" cx="31.5" cy="122.5" rx="9.1" ry="12.2"/>
	<ellipse fill="#FFFFFF" cx="58.6" cy="122.5" rx="9.1" ry="12.2"/>
	<ellipse fill="#51559F" cx="31.5" cy="128.1" rx="6.9" ry="6.5"/>
	<ellipse fill="#51559F" cx="58.6" cy="128.1" rx="6.9" ry="6.5"/>
	<ellipse fill="#FFFFFF" cx="103.9" cy="122.5" rx="9.1" ry="12.2"/>
	<ellipse fill="#FFFFFF" cx="131.1" cy="122.5" rx="9.1" ry="12.2"/>
	<ellipse fill="#51559F" cx="103.9" cy="128.1" rx="6.9" ry="6.5"/>
	<ellipse fill="#51559F" cx="131.1" cy="128.1" rx="6.9" ry="6.5"/>
	<rect x="156.9" y="119.4" fill="#F49AC0" width="63.4" height="27.3"/>
	<path fill="#F49AC0" d="M156.9,146.6c0,0,4.5,8.9,9.1,8.9c4.6,0,9.1-8.9,9.1-8.9H156.9z"/>
	<path fill="#F49AC0" d="M179.6,146.6c0,0,4.5,8.9,9.1,8.9c4.6,0,9.1-8.9,9.1-8.9H179.6z"/>
	<path fill="#F49AC0" d="M202.2,146.6c0,0,4.5,8.9,9.1,8.9c4.6,0,9.1-8.9,9.1-8.9H202.2z"/>
	<rect x="229.4" y="119.4" fill="#F49AC0" width="63.4" height="27.3"/>
	<path fill="#F49AC0" d="M265.6,146.6c0,0,3.4,8.9,6.8,8.9c3.4,0,6.8-8.9,6.8-8.9H265.6z"/>
	<path fill="#F49AC0" d="M282.2,146.6c0,0,2.6,8.9,5.3,8.9s5.3-8.9,5.3-8.9H282.2z"/>
	<path fill="#F49AC0" d="M256.7,146.6c0,0-3.4,8.9-6.8,8.9s-6.8-8.9-6.8-8.9H256.7z"/>
	<path fill="#F49AC0" d="M229.4,146.6c0,0,2.7,8.9,5.5,8.9s5.5-8.9,5.5-8.9H229.4z"/>
	<path fill="#F49AC0" d="M292.1,126.2c0.5-2,0.8-4,0.8-6.1c0-15.5-14.2-28.1-31.7-28.1s-31.7,12.6-31.7,28.1c0,2.1,0.3,4.1,0.8,6.1
		H292.1z"/>
	<path fill="#F49AC0" d="M219.6,126.2c0.5-2,0.8-4,0.8-6.1c0-15.5-14.2-28.1-31.7-28.1s-31.7,12.6-31.7,28.1c0,2.1,0.3,4.1,0.8,6.1
		H219.6z"/>
	<ellipse fill="#FFFFFF" cx="175.1" cy="107.7" rx="9.1" ry="9.8"/>
	<ellipse fill="#FFFFFF" cx="202.2" cy="107.7" rx="9.1" ry="9.8"/>
	<ellipse fill="#51559F" cx="175.1" cy="104.4" rx="6.9" ry="6.5"/>
	<ellipse fill="#51559F" cx="202.2" cy="104.4" rx="6.9" ry="6.5"/>
	<ellipse fill="#FFFFFF" cx="247.5" cy="107.7" rx="9.1" ry="9.8"/>
	<ellipse fill="#FFFFFF" cx="274.7" cy="107.7" rx="9.1" ry="9.8"/>
	<ellipse fill="#51559F" cx="247.5" cy="104.4" rx="6.9" ry="6.5"/>
	<ellipse fill="#51559F" cx="274.7" cy="104.4" rx="6.9" ry="6.5"/>
	<rect x="302.4" y="120.4" fill="#F49AC0" width="63.4" height="27.3"/>
	<path fill="#F49AC0" d="M302.4,147.6c0,0,4.5,8.9,9.1,8.9s9.1-8.9,9.1-8.9H302.4z"/>
	<path fill="#F49AC0" d="M325.1,147.6c0,0,4.5,8.9,9.1,8.9c4.6,0,9.1-8.9,9.1-8.9H325.1z"/>
	<path fill="#F49AC0" d="M347.7,147.6c0,0,4.5,8.9,9.1,8.9c4.6,0,9.1-8.9,9.1-8.9H347.7z"/>
	<path fill="#F49AC0" d="M411.2,147.6c0,0,3.4,8.9,6.8,8.9s6.8-8.9,6.8-8.9H411.2z"/>
	<path fill="#F49AC0" d="M427.7,147.6c0,0,2.6,8.9,5.3,8.9s5.3-8.9,5.3-8.9H427.7z"/>
	<path fill="#F49AC0" d="M402.2,147.6c0,0-3.4,8.9-6.8,8.9c-3.4,0-6.8-8.9-6.8-8.9H402.2z"/>
	<path fill="#F49AC0" d="M374.9,147.6c0,0,2.7,8.9,5.5,8.9c2.8,0,5.5-8.9,5.5-8.9H374.9z"/>
	<path fill="#F49AC0" d="M365.1,127.2c0.5-2.2,0.8-4.5,0.8-6.8c0-17.5-14.2-31.7-31.7-31.7s-31.7,14.2-31.7,31.7
		c0,2.4,0.3,4.6,0.8,6.8H365.1z"/>
	<ellipse fill="#FFFFFF" cx="316.8" cy="123.5" rx="8.8" ry="11.8"/>
	
		<ellipse transform="matrix(-0.9999 1.187336e-002 -1.187336e-002 -0.9999 630.4546 248.7527)" fill="#51559F" cx="314.5" cy="126.2" rx="6.1" ry="7.2"/>
	<path fill="#F49AC0" d="M446,147.3c0,0,4.5,8.9,9.1,8.9s9.1-8.9,9.1-8.9H446z"/>
	<path fill="#F49AC0" d="M468.7,147.3c0,0,4.5,8.9,9.1,8.9c4.6,0,9.1-8.9,9.1-8.9H468.7z"/>
	<path fill="#F49AC0" d="M491.3,147.3c0,0,4.5,8.9,9.1,8.9c4.6,0,9.1-8.9,9.1-8.9H491.3z"/>
	<path fill="#F49AC0" d="M554.7,147.3c0,0,3.4,8.9,6.8,8.9s6.8-8.9,6.8-8.9H554.7z"/>
	<path fill="#F49AC0" d="M571.3,147.3c0,0,2.6,8.9,5.3,8.9s5.3-8.9,5.3-8.9H571.3z"/>
	<path fill="#F49AC0" d="M545.8,147.3c0,0-3.4,8.9-6.8,8.9s-6.8-8.9-6.8-8.9H545.8z"/>
	<path fill="#F49AC0" d="M518.5,147.3c0,0,2.7,8.9,5.5,8.9s5.5-8.9,5.5-8.9H518.5z"/>
	<ellipse fill="#FFFFFF" cx="343.8" cy="123.5" rx="8.8" ry="11.8"/>
	
		<ellipse transform="matrix(-0.9999 1.187336e-002 -1.187336e-002 -0.9999 684.4527 248.4322)" fill="#51559F" cx="341.5" cy="126.2" rx="6.1" ry="7.2"/>
	<rect x="374.9" y="120.4" fill="#F49AC0" width="63.4" height="27.3"/>
	<path fill="#F49AC0" d="M437.6,127.2c0.5-2.2,0.8-4.5,0.8-6.8c0-17.5-14.2-31.7-31.7-31.7c-17.5,0-31.7,14.2-31.7,31.7
		c0,2.4,0.3,4.6,0.8,6.8H437.6z"/>
	<ellipse fill="#FFFFFF" cx="389.3" cy="123.5" rx="8.8" ry="11.8"/>
	
		<ellipse transform="matrix(-0.9999 1.187336e-002 -1.187336e-002 -0.9999 775.467 247.8918)" fill="#51559F" cx="387" cy="126.2" rx="6.1" ry="7.2"/>
	<ellipse fill="#FFFFFF" cx="416.3" cy="123.5" rx="8.8" ry="11.8"/>
	
		<ellipse transform="matrix(-0.9999 1.187336e-002 -1.187336e-002 -0.9999 829.4651 247.5712)" fill="#51559F" cx="414" cy="126.2" rx="6.1" ry="7.2"/>
	<rect x="518.5" y="120.4" fill="#F49AC0" width="63.4" height="27.3"/>
	<path fill="#F49AC0" d="M519.3,127.2c-0.5-2.2-0.8-4.5-0.8-6.8c0-17.5,14.2-31.7,31.7-31.7s31.7,14.2,31.7,31.7
		c0,2.4-0.3,4.6-0.8,6.8H519.3z"/>
	<ellipse fill="#FFFFFF" cx="567.6" cy="123.5" rx="8.8" ry="11.8"/>
	
		<ellipse transform="matrix(0.9999 1.187346e-002 -1.187346e-002 0.9999 1.5392 -6.7577)" fill="#51559F" cx="569.9" cy="126.2" rx="6.1" ry="7.2"/>
	<ellipse fill="#FFFFFF" cx="540.6" cy="123.5" rx="8.8" ry="11.8"/>
	
		<ellipse transform="matrix(0.9999 1.187346e-002 -1.187346e-002 0.9999 1.5373 -6.4371)" fill="#51559F" cx="542.9" cy="126.2" rx="6.1" ry="7.2"/>
	<rect x="446" y="120.4" fill="#F49AC0" width="63.4" height="27.3"/>
	<path fill="#F49AC0" d="M446.8,127.2c-0.5-2.2-0.8-4.5-0.8-6.8c0-17.5,14.2-31.7,31.7-31.7c17.5,0,31.7,14.2,31.7,31.7
		c0,2.4-0.3,4.6-0.8,6.8H446.8z"/>
	<ellipse fill="#FFFFFF" cx="495.1" cy="123.5" rx="8.8" ry="11.8"/>
	
		<ellipse transform="matrix(0.9999 1.187346e-002 -1.187346e-002 0.9999 1.5341 -5.8967)" fill="#51559F" cx="497.4" cy="126.2" rx="6.1" ry="7.2"/>
	<ellipse fill="#FFFFFF" cx="468.1" cy="123.5" rx="8.8" ry="11.8"/>
	
		<ellipse transform="matrix(0.9999 1.187346e-002 -1.187346e-002 0.9999 1.5322 -5.5761)" fill="#51559F" cx="470.4" cy="126.2" rx="6.1" ry="7.2"/>
	<rect x="14.6" y="196.4" fill="#75CEDE" width="63.4" height="27.3"/>
	<path fill="#75CEDE" d="M14.6,223.6c0,0,4.5,8.9,9.1,8.9s9.1-8.9,9.1-8.9H14.6z"/>
	<path fill="#75CEDE" d="M37.2,223.6c0,0,4.5,8.9,9.1,8.9s9.1-8.9,9.1-8.9H37.2z"/>
	<path fill="#75CEDE" d="M59.9,223.6c0,0,4.5,8.9,9.1,8.9c4.6,0,9.1-8.9,9.1-8.9H59.9z"/>
	<rect x="87.1" y="196.4" fill="#75CEDE" width="63.4" height="27.3"/>
	<path fill="#75CEDE" d="M123.3,223.6c0,0,3.4,8.9,6.8,8.9c3.4,0,6.8-8.9,6.8-8.9H123.3z"/>
	<path fill="#75CEDE" d="M139.8,223.6c0,0,2.6,8.9,5.3,8.9s5.3-8.9,5.3-8.9H139.8z"/>
	<path fill="#75CEDE" d="M114.4,223.6c0,0-3.4,8.9-6.8,8.9s-6.8-8.9-6.8-8.9H114.4z"/>
	<path fill="#75CEDE" d="M87.1,223.6c0,0,2.7,8.9,5.5,8.9c2.8,0,5.5-8.9,5.5-8.9H87.1z"/>
	<path fill="#75CEDE" d="M149.7,203.3c0.5-2.2,0.8-4.5,0.8-6.8c0-17.5-14.2-31.7-31.7-31.7s-31.7,14.2-31.7,31.7
		c0,2.4,0.3,4.6,0.8,6.8H149.7z"/>
	<path fill="#75CEDE" d="M77.2,203.3c0.5-2.2,0.8-4.5,0.8-6.8c0-17.5-14.2-31.7-31.7-31.7s-31.7,14.2-31.7,31.7
		c0,2.4,0.3,4.6,0.8,6.8H77.2z"/>
	<ellipse fill="#FFFFFF" cx="32.7" cy="199.2" rx="9.1" ry="12.2"/>
	<ellipse fill="#FFFFFF" cx="59.9" cy="199.2" rx="9.1" ry="12.2"/>
	<ellipse fill="#51559F" cx="32.7" cy="204.9" rx="6.9" ry="6.5"/>
	<ellipse fill="#51559F" cx="59.9" cy="204.9" rx="6.9" ry="6.5"/>
	<ellipse fill="#FFFFFF" cx="105.2" cy="199.2" rx="9.1" ry="12.2"/>
	<ellipse fill="#FFFFFF" cx="132.3" cy="199.2" rx="9.1" ry="12.2"/>
	<ellipse fill="#51559F" cx="105.2" cy="204.9" rx="6.9" ry="6.5"/>
	<ellipse fill="#51559F" cx="132.3" cy="204.9" rx="6.9" ry="6.5"/>
	<rect x="158.2" y="196.1" fill="#75CEDE" width="63.4" height="27.3"/>
	<path fill="#75CEDE" d="M158.2,223.3c0,0,4.5,8.9,9.1,8.9s9.1-8.9,9.1-8.9H158.2z"/>
	<path fill="#75CEDE" d="M180.8,223.3c0,0,4.5,8.9,9.1,8.9s9.1-8.9,9.1-8.9H180.8z"/>
	<path fill="#75CEDE" d="M203.4,223.3c0,0,4.5,8.9,9.1,8.9c4.6,0,9.1-8.9,9.1-8.9H203.4z"/>
	<rect x="230.7" y="196.1" fill="#75CEDE" width="63.4" height="27.3"/>
	<path fill="#75CEDE" d="M266.9,223.3c0,0,3.4,8.9,6.8,8.9c3.4,0,6.8-8.9,6.8-8.9H266.9z"/>
	<path fill="#75CEDE" d="M283.4,223.3c0,0,2.6,8.9,5.3,8.9s5.3-8.9,5.3-8.9H283.4z"/>
	<path fill="#75CEDE" d="M258,223.3c0,0-3.4,8.9-6.8,8.9s-6.8-8.9-6.8-8.9H258z"/>
	<path fill="#75CEDE" d="M230.7,223.3c0,0,2.7,8.9,5.5,8.9c2.8,0,5.5-8.9,5.5-8.9H230.7z"/>
	<path fill="#75CEDE" d="M293.3,203c0.5-2,0.8-4,0.8-6.1c0-15.5-14.2-28.1-31.7-28.1s-31.7,12.6-31.7,28.1c0,2.1,0.3,4.1,0.8,6.1
		H293.3z"/>
	<path fill="#75CEDE" d="M220.8,203c0.5-2,0.8-4,0.8-6.1c0-15.5-14.2-28.1-31.7-28.1s-31.7,12.6-31.7,28.1c0,2.1,0.3,4.1,0.8,6.1
		H220.8z"/>
	<ellipse fill="#FFFFFF" cx="176.3" cy="184.4" rx="9.1" ry="9.8"/>
	<ellipse fill="#FFFFFF" cx="203.4" cy="184.4" rx="9.1" ry="9.8"/>
	<ellipse fill="#51559F" cx="176.3" cy="181.1" rx="6.9" ry="6.5"/>
	<ellipse fill="#51559F" cx="203.4" cy="181.1" rx="6.9" ry="6.5"/>
	<ellipse fill="#FFFFFF" cx="248.8" cy="184.4" rx="9.1" ry="9.8"/>
	<ellipse fill="#FFFFFF" cx="275.9" cy="184.4" rx="9.1" ry="9.8"/>
	<ellipse fill="#51559F" cx="248.8" cy="181.1" rx="6.9" ry="6.5"/>
	<ellipse fill="#51559F" cx="275.9" cy="181.1" rx="6.9" ry="6.5"/>
	<rect x="303.7" y="197.1" fill="#75CEDE" width="63.4" height="27.3"/>
	<path fill="#75CEDE" d="M303.7,224.3c0,0,4.5,8.9,9.1,8.9c4.6,0,9.1-8.9,9.1-8.9H303.7z"/>
	<path fill="#75CEDE" d="M326.3,224.3c0,0,4.5,8.9,9.1,8.9c4.6,0,9.1-8.9,9.1-8.9H326.3z"/>
	<path fill="#75CEDE" d="M349,224.3c0,0,4.5,8.9,9.1,8.9s9.1-8.9,9.1-8.9H349z"/>
	<path fill="#75CEDE" d="M412.4,224.3c0,0,3.4,8.9,6.8,8.9c3.4,0,6.8-8.9,6.8-8.9H412.4z"/>
	<path fill="#75CEDE" d="M428.9,224.3c0,0,2.6,8.9,5.3,8.9s5.3-8.9,5.3-8.9H428.9z"/>
	<path fill="#75CEDE" d="M403.5,224.3c0,0-3.4,8.9-6.8,8.9c-3.4,0-6.8-8.9-6.8-8.9H403.5z"/>
	<path fill="#75CEDE" d="M376.2,224.3c0,0,2.7,8.9,5.5,8.9c2.8,0,5.5-8.9,5.5-8.9H376.2z"/>
	<path fill="#75CEDE" d="M366.3,204c0.5-2.2,0.8-4.5,0.8-6.8c0-17.5-14.2-31.7-31.7-31.7s-31.7,14.2-31.7,31.7
		c0,2.4,0.3,4.6,0.8,6.8H366.3z"/>
	<ellipse fill="#FFFFFF" cx="318.1" cy="200.3" rx="8.8" ry="11.8"/>
	
		<ellipse transform="matrix(-0.9999 1.187336e-002 -1.187336e-002 -0.9999 633.863 402.2107)" fill="#51559F" cx="315.7" cy="203" rx="6.1" ry="7.2"/>
	<path fill="#75CEDE" d="M447.3,224c0,0,4.5,8.9,9.1,8.9s9.1-8.9,9.1-8.9H447.3z"/>
	<path fill="#75CEDE" d="M469.9,224c0,0,4.5,8.9,9.1,8.9c4.6,0,9.1-8.9,9.1-8.9H469.9z"/>
	<path fill="#75CEDE" d="M492.5,224c0,0,4.5,8.9,9.1,8.9s9.1-8.9,9.1-8.9H492.5z"/>
	<path fill="#75CEDE" d="M556,224c0,0,3.4,8.9,6.8,8.9s6.8-8.9,6.8-8.9H556z"/>
	<path fill="#75CEDE" d="M572.5,224c0,0,2.6,8.9,5.3,8.9s5.3-8.9,5.3-8.9H572.5z"/>
	<path fill="#75CEDE" d="M547.1,224c0,0-3.4,8.9-6.8,8.9c-3.4,0-6.8-8.9-6.8-8.9H547.1z"/>
	<path fill="#75CEDE" d="M519.8,224c0,0,2.7,8.9,5.5,8.9c2.8,0,5.5-8.9,5.5-8.9H519.8z"/>
	<ellipse fill="#FFFFFF" cx="345.1" cy="200.3" rx="8.8" ry="11.8"/>
	
		<ellipse transform="matrix(-0.9999 1.187336e-002 -1.187336e-002 -0.9999 687.8611 401.8901)" fill="#51559F" cx="342.7" cy="203" rx="6.1" ry="7.2"/>
	<rect x="376.2" y="197.1" fill="#75CEDE" width="63.4" height="27.3"/>
	<path fill="#75CEDE" d="M438.8,204c0.5-2.2,0.8-4.5,0.8-6.8c0-17.5-14.2-31.7-31.7-31.7s-31.7,14.2-31.7,31.7
		c0,2.4,0.3,4.6,0.8,6.8H438.8z"/>
	<ellipse fill="#FFFFFF" cx="390.6" cy="200.3" rx="8.8" ry="11.8"/>
	
		<ellipse transform="matrix(-0.9999 1.187336e-002 -1.187336e-002 -0.9999 778.8754 401.3498)" fill="#51559F" cx="388.2" cy="203" rx="6.1" ry="7.2"/>
	<ellipse fill="#FFFFFF" cx="417.6" cy="200.3" rx="8.8" ry="11.8"/>
	
		<ellipse transform="matrix(-0.9999 1.187336e-002 -1.187336e-002 -0.9999 832.8735 401.0292)" fill="#51559F" cx="415.2" cy="203" rx="6.1" ry="7.2"/>
	<rect x="519.8" y="197.1" fill="#75CEDE" width="63.4" height="27.3"/>
	<path fill="#75CEDE" d="M520.6,204c-0.5-2.2-0.8-4.5-0.8-6.8c0-17.5,14.2-31.7,31.7-31.7s31.7,14.2,31.7,31.7
		c0,2.4-0.3,4.6-0.8,6.8H520.6z"/>
	<ellipse fill="#FFFFFF" cx="568.8" cy="200.3" rx="8.8" ry="11.8"/>
	
		<ellipse transform="matrix(0.9999 1.187346e-002 -1.187346e-002 0.9999 2.4504 -6.7671)" fill="#51559F" cx="571.1" cy="203" rx="6.1" ry="7.2"/>
	<ellipse fill="#FFFFFF" cx="541.8" cy="200.3" rx="8.8" ry="11.8"/>
	
		<ellipse transform="matrix(0.9999 1.187346e-002 -1.187346e-002 0.9999 2.4485 -6.4465)" fill="#51559F" cx="544.1" cy="203" rx="6.1" ry="7.2"/>
	<rect x="447.3" y="197.1" fill="#75CEDE" width="63.4" height="27.3"/>
	<path fill="#75CEDE" d="M448.1,204c-0.5-2.2-0.8-4.5-0.8-6.8c0-17.5,14.2-31.7,31.7-31.7s31.7,14.2,31.7,31.7
		c0,2.4-0.3,4.6-0.8,6.8H448.1z"/>
	<ellipse fill="#FFFFFF" cx="496.3" cy="200.3" rx="8.8" ry="11.8"/>
	
		<ellipse transform="matrix(0.9999 1.187346e-002 -1.187346e-002 0.9999 2.4453 -5.9061)" fill="#51559F" cx="498.6" cy="203" rx="6.1" ry="7.2"/>
	<ellipse fill="#FFFFFF" cx="469.3" cy="200.3" rx="8.8" ry="11.8"/>
	
		<ellipse transform="matrix(0.9999 1.187346e-002 -1.187346e-002 0.9999 2.4434 -5.5856)" fill="#51559F" cx="471.6" cy="203" rx="6.1" ry="7.2"/>
	<rect x="14.6" y="272.1" fill="#FFCE33" width="63.4" height="27.3"/>
	<path fill="#FFCE33" d="M14.6,299.3c0,0,4.5,8.9,9.1,8.9s9.1-8.9,9.1-8.9H14.6z"/>
	<path fill="#FFCE33" d="M37.2,299.3c0,0,4.5,8.9,9.1,8.9s9.1-8.9,9.1-8.9H37.2z"/>
	<path fill="#FFCE33" d="M59.9,299.3c0,0,4.5,8.9,9.1,8.9c4.6,0,9.1-8.9,9.1-8.9H59.9z"/>
	<rect x="87.1" y="272.1" fill="#FFCE33" width="63.4" height="27.3"/>
	<path fill="#FFCE33" d="M123.3,299.3c0,0,3.4,8.9,6.8,8.9s6.8-8.9,6.8-8.9H123.3z"/>
	<path fill="#FFCE33" d="M139.8,299.3c0,0,2.6,8.9,5.3,8.9s5.3-8.9,5.3-8.9H139.8z"/>
	<path fill="#FFCE33" d="M114.4,299.3c0,0-3.4,8.9-6.8,8.9s-6.8-8.9-6.8-8.9H114.4z"/>
	<path fill="#FFCE33" d="M87.1,299.3c0,0,2.7,8.9,5.5,8.9s5.5-8.9,5.5-8.9H87.1z"/>
	<path fill="#FFCE33" d="M149.7,278.9c0.5-2.2,0.8-4.5,0.8-6.8c0-17.5-14.2-31.7-31.7-31.7s-31.7,14.2-31.7,31.7
		c0,2.4,0.3,4.6,0.8,6.8H149.7z"/>
	<path fill="#FFCE33" d="M77.2,278.9c0.5-2.2,0.8-4.5,0.8-6.8c0-17.5-14.2-31.7-31.7-31.7s-31.7,14.2-31.7,31.7
		c0,2.4,0.3,4.6,0.8,6.8H77.2z"/>
	<ellipse fill="#FFFFFF" cx="32.7" cy="274.9" rx="9.1" ry="12.2"/>
	<ellipse fill="#FFFFFF" cx="59.9" cy="274.9" rx="9.1" ry="12.2"/>
	<ellipse fill="#51559F" cx="32.7" cy="280.5" rx="6.9" ry="6.5"/>
	<ellipse fill="#51559F" cx="59.9" cy="280.5" rx="6.9" ry="6.5"/>
	<ellipse fill="#FFFFFF" cx="105.2" cy="274.9" rx="9.1" ry="12.2"/>
	<ellipse fill="#FFFFFF" cx="132.3" cy="274.9" rx="9.1" ry="12.2"/>
	<ellipse fill="#51559F" cx="105.2" cy="280.5" rx="6.9" ry="6.5"/>
	<ellipse fill="#51559F" cx="132.3" cy="280.5" rx="6.9" ry="6.5"/>
	<rect x="158.2" y="271.8" fill="#FFCE33" width="63.4" height="27.3"/>
	<path fill="#FFCE33" d="M158.2,299c0,0,4.5,8.9,9.1,8.9s9.1-8.9,9.1-8.9H158.2z"/>
	<path fill="#FFCE33" d="M180.8,299c0,0,4.5,8.9,9.1,8.9c4.6,0,9.1-8.9,9.1-8.9H180.8z"/>
	<path fill="#FFCE33" d="M203.4,299c0,0,4.5,8.9,9.1,8.9c4.6,0,9.1-8.9,9.1-8.9H203.4z"/>
	<rect x="230.7" y="271.8" fill="#FFCE33" width="63.4" height="27.3"/>
	<path fill="#FFCE33" d="M266.9,299c0,0,3.4,8.9,6.8,8.9c3.4,0,6.8-8.9,6.8-8.9H266.9z"/>
	<path fill="#FFCE33" d="M283.4,299c0,0,2.6,8.9,5.3,8.9s5.3-8.9,5.3-8.9H283.4z"/>
	<path fill="#FFCE33" d="M258,299c0,0-3.4,8.9-6.8,8.9s-6.8-8.9-6.8-8.9H258z"/>
	<path fill="#FFCE33" d="M230.7,299c0,0,2.7,8.9,5.5,8.9c2.8,0,5.5-8.9,5.5-8.9H230.7z"/>
	<path fill="#FFCE33" d="M293.3,278.6c0.5-2,0.8-4,0.8-6.1c0-15.5-14.2-28.1-31.7-28.1s-31.7,12.6-31.7,28.1c0,2.1,0.3,4.1,0.8,6.1
		H293.3z"/>
	<path fill="#FFCE33" d="M220.8,278.6c0.5-2,0.8-4,0.8-6.1c0-15.5-14.2-28.1-31.7-28.1s-31.7,12.6-31.7,28.1c0,2.1,0.3,4.1,0.8,6.1
		H220.8z"/>
	<ellipse fill="#FFFFFF" cx="176.3" cy="260.1" rx="9.1" ry="9.8"/>
	<ellipse fill="#FFFFFF" cx="203.4" cy="260.1" rx="9.1" ry="9.8"/>
	<ellipse fill="#51559F" cx="176.3" cy="256.7" rx="6.9" ry="6.5"/>
	<ellipse fill="#51559F" cx="203.4" cy="256.7" rx="6.9" ry="6.5"/>
	<ellipse fill="#FFFFFF" cx="248.8" cy="260.1" rx="9.1" ry="9.8"/>
	<ellipse fill="#FFFFFF" cx="275.9" cy="260.1" rx="9.1" ry="9.8"/>
	<ellipse fill="#51559F" cx="248.8" cy="256.7" rx="6.9" ry="6.5"/>
	<ellipse fill="#51559F" cx="275.9" cy="256.7" rx="6.9" ry="6.5"/>
	<rect x="303.7" y="272.8" fill="#FFCE33" width="63.4" height="27.3"/>
	<path fill="#FFCE33" d="M303.7,300c0,0,4.5,8.9,9.1,8.9s9.1-8.9,9.1-8.9H303.7z"/>
	<path fill="#FFCE33" d="M326.3,300c0,0,4.5,8.9,9.1,8.9c4.6,0,9.1-8.9,9.1-8.9H326.3z"/>
	<path fill="#FFCE33" d="M349,300c0,0,4.5,8.9,9.1,8.9s9.1-8.9,9.1-8.9H349z"/>
	<path fill="#FFCE33" d="M412.4,300c0,0,3.4,8.9,6.8,8.9c3.4,0,6.8-8.9,6.8-8.9H412.4z"/>
	<path fill="#FFCE33" d="M428.9,300c0,0,2.6,8.9,5.3,8.9s5.3-8.9,5.3-8.9H428.9z"/>
	<path fill="#FFCE33" d="M403.5,300c0,0-3.4,8.9-6.8,8.9c-3.4,0-6.8-8.9-6.8-8.9H403.5z"/>
	<path fill="#FFCE33" d="M376.2,300c0,0,2.7,8.9,5.5,8.9c2.8,0,5.5-8.9,5.5-8.9H376.2z"/>
	<path fill="#FFCE33" d="M366.3,279.6c0.5-2.2,0.8-4.5,0.8-6.8c0-17.5-14.2-31.7-31.7-31.7s-31.7,14.2-31.7,31.7
		c0,2.4,0.3,4.6,0.8,6.8H366.3z"/>
	<ellipse fill="#FFFFFF" cx="318.1" cy="275.9" rx="8.8" ry="11.8"/>
	
		<ellipse transform="matrix(-0.9999 1.187336e-002 -1.187336e-002 -0.9999 634.7612 553.4803)" fill="#51559F" cx="315.7" cy="278.6" rx="6.1" ry="7.2"/>
	<path fill="#FFCE33" d="M447.3,299.7c0,0,4.5,8.9,9.1,8.9s9.1-8.9,9.1-8.9H447.3z"/>
	<path fill="#FFCE33" d="M469.9,299.7c0,0,4.5,8.9,9.1,8.9c4.6,0,9.1-8.9,9.1-8.9H469.9z"/>
	<path fill="#FFCE33" d="M492.5,299.7c0,0,4.5,8.9,9.1,8.9s9.1-8.9,9.1-8.9H492.5z"/>
	<path fill="#FFCE33" d="M556,299.7c0,0,3.4,8.9,6.8,8.9c3.4,0,6.8-8.9,6.8-8.9H556z"/>
	<path fill="#FFCE33" d="M572.5,299.7c0,0,2.6,8.9,5.3,8.9s5.3-8.9,5.3-8.9H572.5z"/>
	<path fill="#FFCE33" d="M547.1,299.7c0,0-3.4,8.9-6.8,8.9c-3.4,0-6.8-8.9-6.8-8.9H547.1z"/>
	<path fill="#FFCE33" d="M519.8,299.7c0,0,2.7,8.9,5.5,8.9c2.8,0,5.5-8.9,5.5-8.9H519.8z"/>
	<ellipse fill="#FFFFFF" cx="345.1" cy="275.9" rx="8.8" ry="11.8"/>
	
		<ellipse transform="matrix(-0.9999 1.187336e-002 -1.187336e-002 -0.9999 688.7593 553.1597)" fill="#51559F" cx="342.7" cy="278.6" rx="6.1" ry="7.2"/>
	<rect x="376.2" y="272.8" fill="#FFCE33" width="63.4" height="27.3"/>
	<path fill="#FFCE33" d="M438.8,279.6c0.5-2.2,0.8-4.5,0.8-6.8c0-17.5-14.2-31.7-31.7-31.7c-17.5,0-31.7,14.2-31.7,31.7
		c0,2.4,0.3,4.6,0.8,6.8H438.8z"/>
	<ellipse fill="#FFFFFF" cx="390.6" cy="275.9" rx="8.8" ry="11.8"/>
	
		<ellipse transform="matrix(-0.9999 1.187336e-002 -1.187336e-002 -0.9999 779.7736 552.6194)" fill="#51559F" cx="388.2" cy="278.6" rx="6.1" ry="7.2"/>
	<ellipse fill="#FFFFFF" cx="417.6" cy="275.9" rx="8.8" ry="11.8"/>
	
		<ellipse transform="matrix(-0.9999 1.187336e-002 -1.187336e-002 -0.9999 833.7717 552.2988)" fill="#51559F" cx="415.2" cy="278.6" rx="6.1" ry="7.2"/>
	<rect x="519.8" y="272.8" fill="#FFCE33" width="63.4" height="27.3"/>
	<path fill="#FFCE33" d="M520.6,279.6c-0.5-2.2-0.8-4.5-0.8-6.8c0-17.5,14.2-31.7,31.7-31.7s31.7,14.2,31.7,31.7
		c0,2.4-0.3,4.6-0.8,6.8H520.6z"/>
	<ellipse fill="#FFFFFF" cx="568.8" cy="275.9" rx="8.8" ry="11.8"/>
	
		<ellipse transform="matrix(0.9999 1.187346e-002 -1.187346e-002 0.9999 3.3485 -6.7617)" fill="#51559F" cx="571.1" cy="278.6" rx="6.1" ry="7.2"/>
	<ellipse fill="#FFFFFF" cx="541.8" cy="275.9" rx="8.8" ry="11.8"/>
	
		<ellipse transform="matrix(0.9999 1.187346e-002 -1.187346e-002 0.9999 3.3466 -6.4412)" fill="#51559F" cx="544.1" cy="278.6" rx="6.1" ry="7.2"/>
	<rect x="447.3" y="272.8" fill="#FFCE33" width="63.4" height="27.3"/>
	<path fill="#FFCE33" d="M448.1,279.6c-0.5-2.2-0.8-4.5-0.8-6.8c0-17.5,14.2-31.7,31.7-31.7s31.7,14.2,31.7,31.7
		c0,2.4-0.3,4.6-0.8,6.8H448.1z"/>
	<ellipse fill="#FFFFFF" cx="496.3" cy="275.9" rx="8.8" ry="11.8"/>
	
		<ellipse transform="matrix(0.9999 1.187346e-002 -1.187346e-002 0.9999 3.3434 -5.9008)" fill="#51559F" cx="498.6" cy="278.6" rx="6.1" ry="7.2"/>
	<ellipse fill="#FFFFFF" cx="469.3" cy="275.9" rx="8.8" ry="11.8"/>
	
		<ellipse transform="matrix(0.9999 1.187346e-002 -1.187346e-002 0.9999 3.3415 -5.5802)" fill="#51559F" cx="471.6" cy="278.6" rx="6.1" ry="7.2"/>
	<rect x="447.5" y="350.9" fill="#FFFFFF" width="63" height="27.1"/>
	<path fill="#FFFFFF" d="M447.5,377.9c0,0,4.5,8.9,9,8.9s9-8.9,9-8.9H447.5z"/>
	<path fill="#FFFFFF" d="M470,377.9c0,0,4.5,8.9,9,8.9s9-8.9,9-8.9H470z"/>
	<path fill="#FFFFFF" d="M492.5,377.9c0,0,4.5,8.9,9,8.9c4.5,0,9-8.9,9-8.9H492.5z"/>
	<rect x="520.2" y="350.9" fill="#FFFFFF" width="63" height="27.1"/>
	<path fill="#FFFFFF" d="M556.2,377.9c0,0,3.4,8.9,6.8,8.9s6.8-8.9,6.8-8.9H556.2z"/>
	<path fill="#FFFFFF" d="M572.6,377.9c0,0,2.6,8.9,5.3,8.9s5.3-8.9,5.3-8.9H572.6z"/>
	<path fill="#FFFFFF" d="M547.4,377.9c0,0-3.4,8.9-6.8,8.9c-3.4,0-6.8-8.9-6.8-8.9H547.4z"/>
	<path fill="#FFFFFF" d="M520.2,377.9c0,0,2.7,8.9,5.5,8.9c2.8,0,5.5-8.9,5.5-8.9H520.2z"/>
	<path fill="#FFFFFF" d="M582.5,357.7c0.5-2.2,0.8-4.5,0.8-6.8c0-17.4-14.1-31.5-31.5-31.5s-31.5,14.1-31.5,31.5
		c0,2.3,0.3,4.6,0.8,6.8H582.5z"/>
	<path fill="#FFFFFF" d="M509.7,357.7c0.5-2.2,0.8-4.5,0.8-6.8c0-17.4-14.1-31.5-31.5-31.5c-17.4,0-31.5,14.1-31.5,31.5
		c0,2.3,0.3,4.6,0.8,6.8H509.7z"/>
	<circle fill="#ED1C24" cx="542.9" cy="349.8" r="5.3"/>
	<circle fill="#ED1C24" cx="560.7" cy="349.8" r="5.3"/>
	<circle fill="#ED1C24" cx="470.1" cy="349.8" r="5.3"/>
	<circle fill="#ED1C24" cx="487.9" cy="349.8" r="5.3"/>
	<path fill="#ED1C24" d="M524.8,368.3c0,0,0.6-5.1,4.7-5.1s9,0,9,4.3c0,4.3,8.9,4.3,8.9-0.2c0-4.5,8.8-4.1,8.8,0.4
		c0,4.5,8.7,4.5,8.7,0.2s9.6-4.3,9.6-0.7C574.5,370.7,524.8,368.3,524.8,368.3z"/>
	<path fill="#ED1C24" d="M451.9,368.1c0,0,0.6-5.1,4.7-5.1s9,0,9,4.3s8.9,4.3,8.9-0.2s8.8-4.1,8.8,0.4s8.7,4.5,8.7,0.2
		s9.6-4.3,9.6-0.7S451.9,368.1,451.9,368.1z"/>
	<rect x="304.7" y="350.9" fill="#3D59A8" width="63" height="27.1"/>
	<path fill="#3D59A8" d="M304.7,377.9c0,0,4.5,8.9,9,8.9s9-8.9,9-8.9H304.7z"/>
	<path fill="#3D59A8" d="M327.2,377.9c0,0,4.5,8.9,9,8.9s9-8.9,9-8.9H327.2z"/>
	<path fill="#3D59A8" d="M349.7,377.9c0,0,4.5,8.9,9,8.9c4.5,0,9-8.9,9-8.9H349.7z"/>
	<rect x="376.4" y="350.6" fill="#3D59A8" width="63" height="27.1"/>
	<path fill="#3D59A8" d="M412.4,377.6c0,0,3.4,8.9,6.8,8.9c3.4,0,6.8-8.9,6.8-8.9H412.4z"/>
	<path fill="#3D59A8" d="M428.9,377.6c0,0,2.6,8.9,5.3,8.9c2.7,0,5.3-8.9,5.3-8.9H428.9z"/>
	<path fill="#3D59A8" d="M403.6,377.6c0,0-3.4,8.9-6.8,8.9s-6.8-8.9-6.8-8.9H403.6z"/>
	<path fill="#3D59A8" d="M376.4,377.6c0,0,2.7,8.9,5.5,8.9c2.8,0,5.5-8.9,5.5-8.9H376.4z"/>
	<path fill="#3D59A8" d="M438.7,357.4c0.5-2.2,0.8-4.5,0.8-6.8c0-17.4-14.1-31.5-31.5-31.5s-31.5,14.1-31.5,31.5
		c0,2.3,0.3,4.6,0.8,6.8H438.7z"/>
	<path fill="#3D59A8" d="M367,357.7c0.5-2.2,0.8-4.5,0.8-6.8c0-17.4-14.1-31.5-31.5-31.5c-17.4,0-31.5,14.1-31.5,31.5
		c0,2.3,0.3,4.6,0.8,6.8H367z"/>
	<circle fill="#FFCE33" cx="399.1" cy="349.5" r="5.3"/>
	<circle fill="#FFCE33" cx="416.9" cy="349.5" r="5.3"/>
	<circle fill="#FFCE33" cx="327.3" cy="349.8" r="5.3"/>
	<circle fill="#FFCE33" cx="345.2" cy="349.8" r="5.3"/>
	<path fill="#FFCE33" d="M381,368c0,0,0.6-5.1,4.7-5.1s9,0,9,4.3c0,4.3,8.9,4.3,8.9-0.2c0-4.5,8.8-4.1,8.8,0.4
		c0,4.5,8.7,4.5,8.7,0.2c0-4.3,9.6-4.3,9.6-0.7C430.8,370.4,381,368,381,368z"/>
	<path fill="#FFCE33" d="M309.2,368.1c0,0,0.6-5.1,4.7-5.1s9,0,9,4.3s8.9,4.3,8.9-0.2s8.8-4.1,8.8,0.4s8.7,4.5,8.7,0.2
		s9.6-4.3,9.6-0.7S309.2,368.1,309.2,368.1z"/>
	<circle fill="#F9B08F" cx="332.6" cy="430.2" r="19.2"/>
	<ellipse fill="#F9B08F" cx="407.9" cy="430.2" rx="9.3" ry="8.9"/>
	<circle fill="#F9ED32" cx="189.3" cy="357.4" r="32.3"/>
	<path fill="#F9ED32" d="M45.5,325.2c-14.4,0-26.5,9.4-30.7,22.4l39.6,10.5l-39,10.9c4.7,12.1,16.3,20.6,30,20.6
		c17.8,0,32.2-14.4,32.2-32.2C77.7,339.6,63.3,325.2,45.5,325.2z"/>
	<path fill="#F9ED32" d="M118.1,325.5c-6.4,0-12.3,1.9-17.2,5.1l26,27.1l-25.4,27c4.8,3,10.5,4.7,16.6,4.7
		c17.6,0,31.9-14.3,31.9-31.9C150,339.8,135.7,325.5,118.1,325.5z"/>
	<path fill="#F9ED32" d="M14.1,437.8c0,14.4,9.4,26.5,22.4,30.7L47,428.9l10.9,39c12.1-4.7,20.6-16.3,20.6-30
		c0-17.8-14.4-32.2-32.2-32.2C28.5,405.6,14.1,420.1,14.1,437.8z"/>
	<path fill="#F9ED32" d="M86.2,437.5c0,6.4,1.9,12.3,5.1,17.2l27.1-26l27,25.4c3-4.8,4.7-10.5,4.7-16.6c0-17.6-14.3-31.9-31.9-31.9
		C100.5,405.6,86.2,419.9,86.2,437.5z"/>
	<path fill="#F9ED32" d="M78.2,518.3c0-14.4-9.4-26.5-22.4-30.7l-10.5,39.6l-10.9-39c-12.1,4.7-20.6,16.3-20.6,30
		c0,17.8,14.4,32.2,32.2,32.2C63.8,550.5,78.2,536.1,78.2,518.3z"/>
	<path fill="#F9ED32" d="M150,518.6c0-6.4-1.9-12.3-5.1-17.2l-27.1,26l-27-25.4c-3,4.8-4.7,10.5-4.7,16.6
		c0,17.6,14.3,31.9,31.9,31.9C135.7,550.5,150,536.2,150,518.6z"/>
	<path fill="#F9ED32" d="M189.2,470c14.4,0,26.5-9.4,30.7-22.4l-39.6-10.5l39-10.9c-4.7-12.1-16.3-20.6-30-20.6
		c-17.8,0-32.2,14.4-32.2,32.2C157,455.6,171.4,470,189.2,470z"/>
	<path fill="#F9ED32" d="M187.9,486.7c-6.4,0-12.3,1.9-17.2,5.1l26,27.1l-25.4,27c4.8,3,10.5,4.7,16.6,4.7
		c17.6,0,31.9-14.3,31.9-31.9C219.8,501,205.6,486.7,187.9,486.7z"/>
	<ellipse fill="#ED1C24" stroke="#000000" stroke-width="4" stroke-miterlimit="10" cx="311.7" cy="517.9" rx="19.1" ry="17.9"/>
	<ellipse fill="#ED1C24" stroke="#000000" stroke-width="4" stroke-miterlimit="10" cx="338.1" cy="528.8" rx="19.1" ry="17.9"/>
	
		<ellipse transform="matrix(0.5404 -0.8414 0.8414 0.5404 -298.0549 498.1779)" fill="#E0DEEF" cx="307" cy="521.9" rx="3.5" ry="7.5"/>
	
		<ellipse transform="matrix(0.4173 -0.9088 0.9088 0.4173 -288.6442 613.8346)" fill="#E0DEEF" cx="334.4" cy="532" rx="3.5" ry="7.5"/>
	<path fill="#E19951" d="M333.3,521.5c1.8,2.6,4.5,0.7,4.5,0.7s2.2-2.5,0-3.3c-2.2-0.8,0.5-6.3,1.5-7.4c1.8-1.9,2.3-4.9,2.3-4.9
		s2.8-2.3,4.7-0.9s2.4-2.6,5.4-4.6s1.7-8.6,1.7-8.6l-5.4-0.8c0,0,2.2,5.2-1.3,7.5s-5,2.5-5,2.5l-2.2,3.8l-4.7,11.2
		C334.8,516.7,331.5,518.9,333.3,521.5z"/>
	<rect x="347" y="491.8" width="10.2" height="4.2"/>
	<path fill="#E19951" d="M314.5,513.1c-2.9-1.8-1.5-5.7,0-3.9c1.5,1.8,5.3-9.9,8-10.9c2.6-1,11-4.6,16.5-6.9l10.8-3.3V483l10.8-0.9
		l1.4,6.3c0,0-3,2.9-2.1,4.5s-8.5,0.7-8.5,0.7h-6.2l-4.9,1.3c0,0-5.5,1-8.8,4c-3.3,3-4.9,3.5-4.9,3.5s-1.1-1.7-3.5,0.8
		s-4.6,7.6-4.6,7.6S321.4,516.6,314.5,513.1z"/>
</g>
</svg>
